<svg width="22" height="22" viewBox="0 0 22 22" fill="none" xmlns="http://www.w3.org/2000/svg">
<g clip-path="url(#clip0)" filter="url(#filter0_d)">
<path d="M11 1.02252C6.18359 1.02252 2.28125 4.92487 2.28125 9.74127C2.28125 14.5577 6.18359 18.46 11 18.46C15.8164 18.46 19.7188 14.5577 19.7188 9.74127C19.7188 4.92487 15.8164 1.02252 11 1.02252ZM13.0074 13.3307L9.90664 11.0772C9.79766 10.9964 9.73438 10.8698 9.73438 10.7362V4.8194C9.73438 4.58737 9.92422 4.39752 10.1562 4.39752H11.8438C12.0758 4.39752 12.2656 4.58737 12.2656 4.8194V9.66041L14.498 11.2846C14.6879 11.4217 14.7266 11.6854 14.5895 11.8753L13.598 13.2393C13.4609 13.4256 13.1973 13.4678 13.0074 13.3307Z" fill="#F2C94C"/>
</g>
<defs>
<filter id="filter0_d" x="0" y="-0.258728" width="22" height="22" filterUnits="userSpaceOnUse" color-interpolation-filters="sRGB">
<feFlood flood-opacity="0" result="BackgroundImageFix"/>
<feColorMatrix in="SourceAlpha" type="matrix" values="0 0 0 0 0 0 0 0 0 0 0 0 0 0 0 0 0 0 127 0"/>
<feOffset dy="1"/>
<feGaussianBlur stdDeviation="1"/>
<feColorMatrix type="matrix" values="0 0 0 0 0 0 0 0 0 0 0 0 0 0 0 0 0 0 0.16 0"/>
<feBlend mode="normal" in2="BackgroundImageFix" result="effect1_dropShadow"/>
<feBlend mode="normal" in="SourceGraphic" in2="effect1_dropShadow" result="shape"/>
</filter>
<clipPath id="clip0">
<rect width="18" height="18" fill="white" transform="translate(2 0.741272)"/>
</clipPath>
</defs>
</svg>
