<svg width="60" height="60" viewBox="0 0 60 60" fill="none" xmlns="http://www.w3.org/2000/svg">
<g clip-path="url(#clip0)" filter="url(#filter0_d)">
<path d="M33.2146 10.9704H14.1246C12.7186 10.9704 11.5784 12.1106 11.5784 13.5154C11.5784 14.9202 12.7186 16.0604 14.1246 16.0604H33.2146C34.623 16.0604 35.7608 14.9202 35.7608 13.5154C35.7596 12.1106 34.6218 10.9704 33.2146 10.9704Z" fill="#F2C94C"/>
<path d="M35.7596 23.0604C35.7596 21.6545 34.6218 20.5154 33.2134 20.5154H14.1246C12.7186 20.5154 11.5784 21.6557 11.5784 23.0604C11.5784 24.4664 12.7186 25.6066 14.1246 25.6066H33.2146C34.6218 25.6066 35.7596 24.4664 35.7596 23.0604Z" fill="#F2C94C"/>
<path d="M23.6708 35.1517C25.0768 35.1517 26.2158 34.0114 26.2158 32.6066C26.2158 31.2007 25.0768 30.0604 23.6708 30.0604H14.1246C12.7186 30.0604 11.5784 31.2007 11.5784 32.6066C11.5784 34.0126 12.7186 35.1517 14.1246 35.1517H23.6708Z" fill="#F2C94C"/>
<path d="M42.8849 43.8102L40.2147 45.5724V51.9088H7.12468V6.09123H40.2147V16.1498L45.306 7.33157V3.54502C45.306 2.13906 44.1657 1 42.7597 1H4.57847C3.17251 1 2.03345 2.14026 2.03345 3.54502V54.4562C2.03345 55.8621 3.17251 57.0012 4.57847 57.0012H42.7597C44.1669 57.0012 45.3072 55.8609 45.3072 54.4562V40.4264L44.0906 42.5306C43.794 43.0441 43.3769 43.4861 42.8849 43.8102Z" fill="#F2C94C"/>
<path d="M57.9371 12.7886C57.8846 12.5598 57.3473 10.5033 54.1088 8.63268C50.8703 6.76323 48.821 7.32561 48.5946 7.39591C48.2908 7.49242 48.0346 7.69736 47.8749 7.97378L31.9662 35.5282C31.8673 35.7009 31.8089 35.8928 31.797 36.0905L31.2012 46.0335C31.1726 46.5149 31.4181 46.97 31.8339 47.2119C32.2533 47.4526 32.7692 47.4359 33.172 47.1726L41.485 41.6846C41.6506 41.5774 41.7876 41.4308 41.8865 41.2604L57.7965 13.7013C57.9561 13.4248 58.005 13.1008 57.9371 12.7886ZM36.3794 42.7677C35.9565 42.4257 35.4763 42.1028 34.9604 41.8037C34.4421 41.5047 33.9226 41.2533 33.415 41.0555L33.5925 38.0744C34.2562 38.1614 35.2404 38.4306 36.4902 39.1503C37.7389 39.8711 38.4622 40.5908 38.872 41.121L36.3794 42.7677Z" fill="#F2C94C"/>
<path d="M19.7794 46.9128C19.8628 47.424 20.4526 47.5825 20.847 47.7469C21.2283 47.9077 21.6834 47.6027 22.0003 47.449C23.9425 46.5042 26.5733 47.6146 28.6536 47.6146C29.8844 47.6146 29.8844 45.7059 28.6536 45.7059C26.2278 45.7059 24.2094 45.0922 21.8049 45.489C21.8049 45.3496 21.7537 45.1614 21.6036 44.9052C21.1544 44.1367 20.5825 43.9186 20.0094 44.0116C19.9712 43.921 19.9343 43.8305 19.8807 43.7387C19.7306 43.4933 19.5209 43.3705 19.2849 43.3193C19.9557 42.1469 20.3883 40.9065 19.9486 39.9033C19.814 39.5983 19.4315 39.4422 19.1241 39.4303C17.8492 39.3826 16.7554 40.7207 15.9357 41.5237C13.8851 43.5338 12.0788 45.8155 10.3309 48.0865C9.58026 49.0623 11.24 50.0107 11.9787 49.0516C13.5277 47.0403 15.1683 45.0875 16.9341 43.2609C16.5088 43.9591 16.0572 44.6442 15.5818 45.3043C14.9026 46.354 16.5243 47.2477 17.2296 46.2682C17.3976 46.0121 17.6109 45.8274 17.8444 45.6689C17.798 45.7869 17.7503 45.9025 17.7026 46.0216C17.705 46.0216 17.7074 46.0228 17.7098 46.024C17.6729 46.1002 17.6359 46.1765 17.6061 46.2492C17.1796 47.318 18.7726 47.8077 19.3517 46.9831C19.4982 46.7758 19.634 46.5542 19.7568 46.3219C19.7484 46.4815 19.7449 46.696 19.7794 46.9128Z" fill="#F2C94C"/>
</g>
<defs>
<filter id="filter0_d" x="0" y="0" width="60" height="60" filterUnits="userSpaceOnUse" color-interpolation-filters="sRGB">
<feFlood flood-opacity="0" result="BackgroundImageFix"/>
<feColorMatrix in="SourceAlpha" type="matrix" values="0 0 0 0 0 0 0 0 0 0 0 0 0 0 0 0 0 0 127 0"/>
<feOffset dy="1"/>
<feGaussianBlur stdDeviation="1"/>
<feColorMatrix type="matrix" values="0 0 0 0 0 0 0 0 0 0 0 0 0 0 0 0 0 0 0.16 0"/>
<feBlend mode="normal" in2="BackgroundImageFix" result="effect1_dropShadow"/>
<feBlend mode="normal" in="SourceGraphic" in2="effect1_dropShadow" result="shape"/>
</filter>
<clipPath id="clip0">
<rect width="56" height="56" fill="white" transform="translate(2 1)"/>
</clipPath>
</defs>
</svg>
