<svg width="104" height="104" viewBox="0 0 104 104" fill="none" xmlns="http://www.w3.org/2000/svg">
<g clip-path="url(#clip0)" filter="url(#filter0_d)">
<path d="M90.1644 20.94C90.1644 19.1592 88.3449 18.6401 86.9278 18.3252V23.5038C88.5076 23.3974 90.1644 22.6613 90.1644 20.94Z" fill="#219653"/>
<path d="M85.348 9.90413C83.5585 9.95519 82.3983 11.0041 82.3983 12.1275C82.3983 13.436 83.3787 14.1934 85.3502 14.5849L85.348 9.90413Z" fill="#219653"/>
<path d="M86.0866 32.6312C94.8631 32.6312 102 25.5357 102 16.8167C102 8.09772 94.861 1 86.0866 1C77.3078 1 70.1689 8.0956 70.1689 16.8167C70.1689 25.5357 77.3078 32.6312 86.0866 32.6312ZM79.0888 12.7274C79.0888 9.1743 82.0622 7.33816 85.3502 7.23604V5.84458C85.3502 5.39565 85.6905 4.95311 86.1358 4.95311C86.5853 4.95311 86.9278 5.39565 86.9278 5.84458V7.23604C88.9764 7.28923 93.1913 8.56793 93.1913 11.136C93.1913 12.1551 92.425 12.7551 91.5323 12.7551C89.8177 12.7551 89.8455 9.95726 86.93 9.90407V14.8742C90.4063 15.6061 93.4803 16.6273 93.4803 20.6549C93.4803 24.157 90.8495 25.9378 86.93 26.1739V27.7909C86.93 28.2377 86.5875 28.6824 86.1379 28.6824C85.6927 28.6824 85.3523 28.2377 85.3523 27.7909V26.1739C80.9062 26.0654 78.6971 23.4251 78.6971 21.357C78.6971 20.3145 79.3307 19.7102 80.3261 19.7102C83.2738 19.7102 80.9833 23.3187 85.3545 23.5038V18.0358C81.4521 17.3294 79.0888 15.6316 79.0888 12.7274Z" fill="#219653"/>
<path d="M22.0219 71.4517H8.30258C5.77663 71.4517 3.73019 73.4879 3.73019 75.9985V96.4512C3.73233 98.966 5.78092 100.998 8.30258 100.998H22.0219C24.5478 100.998 26.5942 98.966 26.5942 96.4512V75.9985C26.5964 73.4879 24.5499 71.4517 22.0219 71.4517Z" fill="#219653"/>
<path d="M57.4792 55.5457H43.7599C41.234 55.5457 39.1876 57.5819 39.1876 60.0924V96.4555C39.1876 98.9703 41.2361 101.002 43.7599 101.002H57.4792C60.0052 101.002 62.0537 98.9703 62.0537 96.4555V60.0861C62.0537 57.5819 60.0073 55.5457 57.4792 55.5457Z" fill="#219653"/>
<path d="M92.943 37.3631H79.2258C76.6977 37.3631 74.6513 39.3992 74.6513 41.9077V96.4512C74.6513 98.966 76.6999 100.998 79.2258 100.998H92.943C95.471 100.998 97.5175 98.966 97.5175 96.4512V41.9098C97.5196 39.3992 95.471 37.3631 92.943 37.3631Z" fill="#219653"/>
<path d="M65.5194 24.3442L54.1634 21.9847C53.2943 21.806 52.3995 22.14 51.8665 22.8442C51.3335 23.5506 51.2607 24.4974 51.6781 25.2782L54.1955 29.9824L3.84365 55.7967C2.72196 56.3733 2.28099 57.7456 2.8611 58.8562C3.26782 59.6371 4.06627 60.086 4.8947 60.086C5.2479 60.086 5.60538 60.0073 5.94146 59.8328L56.3404 33.9929L58.6501 38.3077C59.0483 39.0524 59.8253 39.5141 60.6688 39.5141C60.7073 39.5141 60.7437 39.512 60.7843 39.5098C61.6706 39.4652 62.4519 38.9162 62.7858 38.0992L67.172 27.4229C67.4288 26.7973 67.3946 26.0931 67.0735 25.4974C66.7503 24.908 66.183 24.4846 65.5194 24.3442Z" fill="#219653"/>
</g>
<defs>
<filter id="filter0_d" x="0" y="0" width="104" height="104" filterUnits="userSpaceOnUse" color-interpolation-filters="sRGB">
<feFlood flood-opacity="0" result="BackgroundImageFix"/>
<feColorMatrix in="SourceAlpha" type="matrix" values="0 0 0 0 0 0 0 0 0 0 0 0 0 0 0 0 0 0 127 0"/>
<feOffset dy="1"/>
<feGaussianBlur stdDeviation="1"/>
<feColorMatrix type="matrix" values="0 0 0 0 0 0 0 0 0 0 0 0 0 0 0 0 0 0 0.16 0"/>
<feBlend mode="normal" in2="BackgroundImageFix" result="effect1_dropShadow"/>
<feBlend mode="normal" in="SourceGraphic" in2="effect1_dropShadow" result="shape"/>
</filter>
<clipPath id="clip0">
<rect width="100" height="100" fill="white" transform="translate(2 1)"/>
</clipPath>
</defs>
</svg>
