<svg width="22" height="25" viewBox="0 0 22 25" fill="none" xmlns="http://www.w3.org/2000/svg">
<g clip-path="url(#clip0)" filter="url(#filter0_d)">
<path d="M13.7692 5.41418C14.9163 5.41418 15.8462 4.58999 15.8462 3.57327C15.8462 2.55655 14.9163 1.73236 13.7692 1.73236C12.6222 1.73236 11.6923 2.55655 11.6923 3.57327C11.6923 4.58999 12.6222 5.41418 13.7692 5.41418ZM6.91928 13.9081L6.27889 15.232H3.38462C2.62005 15.232 2 15.7816 2 16.4592C2 17.1369 2.62005 17.6865 3.38462 17.6865H6.73582C7.56875 17.6865 8.31861 17.2478 8.64442 16.5709L9.02476 15.7839L8.56308 15.5422C7.81365 15.1499 7.2624 14.5693 6.91928 13.9081ZM18.6154 10.3229H16.7102L15.5826 8.28063C15.0418 7.30073 14.0488 6.58431 12.9095 6.32696L9.83389 5.5162C8.60938 5.2554 7.33423 5.4951 6.33601 6.17355L4.61952 7.33985C4.01245 7.75213 3.89736 8.52225 4.36337 9.06033C4.82938 9.59841 5.69779 9.69928 6.30442 9.28738L8.02178 8.12108C8.35365 7.89519 8.77639 7.81426 9.11519 7.8856L9.75125 8.0532L8.13038 11.4048C7.58433 12.5354 8.0737 13.8597 9.26837 14.4849L12.9454 16.409L11.7568 19.7737C11.5283 20.4203 11.9346 21.1087 12.6641 21.3112C12.8022 21.3495 12.9415 21.368 13.0787 21.368C13.6675 21.368 14.2136 21.0316 14.3992 20.5069L15.7683 16.6311C16.024 15.8345 15.6432 14.9789 14.8319 14.5451L12.1821 13.159L13.5369 10.1568L14.4139 11.7458C14.7601 12.3724 15.4922 12.777 16.2793 12.777H18.6154C19.38 12.777 20 12.2275 20 11.5498C20 10.8721 19.38 10.3229 18.6154 10.3229Z" fill="#3741BF"/>
</g>
<defs>
<filter id="filter0_d" x="0" y="0.732361" width="22" height="23.6364" filterUnits="userSpaceOnUse" color-interpolation-filters="sRGB">
<feFlood flood-opacity="0" result="BackgroundImageFix"/>
<feColorMatrix in="SourceAlpha" type="matrix" values="0 0 0 0 0 0 0 0 0 0 0 0 0 0 0 0 0 0 127 0"/>
<feOffset dy="1"/>
<feGaussianBlur stdDeviation="1"/>
<feColorMatrix type="matrix" values="0 0 0 0 0 0 0 0 0 0 0 0 0 0 0 0 0 0 0.16 0"/>
<feBlend mode="normal" in2="BackgroundImageFix" result="effect1_dropShadow"/>
<feBlend mode="normal" in="SourceGraphic" in2="effect1_dropShadow" result="shape"/>
</filter>
<clipPath id="clip0">
<rect width="18" height="19.6364" fill="white" transform="translate(2 1.73236)"/>
</clipPath>
</defs>
</svg>
