<svg width="22" height="23" viewBox="0 0 22 23" fill="none" xmlns="http://www.w3.org/2000/svg">
<g clip-path="url(#clip0)" filter="url(#filter0_d)">
<path d="M11 1.83179C6.18359 1.83179 2.28125 5.73413 2.28125 10.5505C2.28125 15.3669 6.18359 19.2693 11 19.2693C15.8164 19.2693 19.7188 15.3669 19.7188 10.5505C19.7188 5.73413 15.8164 1.83179 11 1.83179ZM13.0074 14.14L9.90664 11.8865C9.79766 11.8056 9.73438 11.6791 9.73438 11.5455V5.62866C9.73438 5.39663 9.92422 5.20679 10.1562 5.20679H11.8438C12.0758 5.20679 12.2656 5.39663 12.2656 5.62866V10.4697L14.498 12.0939C14.6879 12.231 14.7266 12.4947 14.5895 12.6845L13.598 14.0486C13.4609 14.2349 13.1973 14.2771 13.0074 14.14Z" fill="#2F80ED"/>
</g>
<defs>
<filter id="filter0_d" x="0" y="0.550537" width="22" height="22" filterUnits="userSpaceOnUse" color-interpolation-filters="sRGB">
<feFlood flood-opacity="0" result="BackgroundImageFix"/>
<feColorMatrix in="SourceAlpha" type="matrix" values="0 0 0 0 0 0 0 0 0 0 0 0 0 0 0 0 0 0 127 0"/>
<feOffset dy="1"/>
<feGaussianBlur stdDeviation="1"/>
<feColorMatrix type="matrix" values="0 0 0 0 0 0 0 0 0 0 0 0 0 0 0 0 0 0 0.16 0"/>
<feBlend mode="normal" in2="BackgroundImageFix" result="effect1_dropShadow"/>
<feBlend mode="normal" in="SourceGraphic" in2="effect1_dropShadow" result="shape"/>
</filter>
<clipPath id="clip0">
<rect width="18" height="18" fill="white" transform="translate(2 1.55054)"/>
</clipPath>
</defs>
</svg>
