<svg width="42" height="60" viewBox="0 0 42 60" fill="none" xmlns="http://www.w3.org/2000/svg">
<g clip-path="url(#clip0)" filter="url(#filter0_d)">
<path d="M26.2697 11.5C29.3613 11.5 31.8697 9.14844 31.8697 6.25C31.8697 3.35156 29.3613 1 26.2697 1C23.178 1 20.6696 3.35156 20.6696 6.25C20.6696 9.14844 23.178 11.5 26.2697 11.5ZM37.2947 27.8078L34.5763 26.5172L33.4447 23.3016C31.7297 18.4234 26.9463 15.0109 21.5213 15C17.3213 14.9891 14.9996 16.1047 10.6363 17.7563C8.11629 18.7078 6.05128 20.5125 4.83795 22.8094L4.05628 24.2969C3.14628 26.025 3.88128 28.125 5.71295 28.9891C7.53295 29.8531 9.74962 29.1531 10.6713 27.425L11.453 25.9375C11.8613 25.1719 12.538 24.5703 13.378 24.2531L16.5046 23.0719L14.7313 29.7109C14.1246 31.9859 14.778 34.4031 16.4696 36.1422L23.458 43.2953C24.298 44.1594 24.893 45.1984 25.1963 46.325L27.3313 54.3422C27.833 56.2125 29.863 57.3609 31.858 56.8906C33.853 56.4203 35.078 54.5172 34.5763 52.6469L31.9863 42.9125C31.683 41.7859 31.088 40.7359 30.248 39.8828L24.9396 34.4469L26.9463 26.9328L27.588 28.7375C28.2063 30.4984 29.5363 31.9531 31.2863 32.7844L34.0047 34.075C35.8247 34.9391 38.0413 34.2391 38.963 32.5109C39.8613 30.7938 39.1263 28.6719 37.2947 27.8078ZM10.5896 43.1969C10.2163 44.0828 9.65629 44.8812 8.93295 45.5484L3.09961 51.0281C1.64128 52.3953 1.64128 54.6156 3.09961 55.9828C4.55795 57.35 6.91462 57.35 8.37295 55.9828L15.303 49.4859C16.0146 48.8187 16.5746 48.0203 16.9596 47.1344L18.5346 43.4375C12.083 36.8422 14.0196 38.8656 13.0046 37.5641L10.5896 43.1969Z" fill="#2D9CDB"/>
</g>
<defs>
<filter id="filter0_d" x="0" y="0" width="41.3333" height="60" filterUnits="userSpaceOnUse" color-interpolation-filters="sRGB">
<feFlood flood-opacity="0" result="BackgroundImageFix"/>
<feColorMatrix in="SourceAlpha" type="matrix" values="0 0 0 0 0 0 0 0 0 0 0 0 0 0 0 0 0 0 127 0"/>
<feOffset dy="1"/>
<feGaussianBlur stdDeviation="1"/>
<feColorMatrix type="matrix" values="0 0 0 0 0 0 0 0 0 0 0 0 0 0 0 0 0 0 0.16 0"/>
<feBlend mode="normal" in2="BackgroundImageFix" result="effect1_dropShadow"/>
<feBlend mode="normal" in="SourceGraphic" in2="effect1_dropShadow" result="shape"/>
</filter>
<clipPath id="clip0">
<rect width="37.3333" height="56" fill="white" transform="translate(2 1)"/>
</clipPath>
</defs>
</svg>
